<?xml version="1.0" encoding="utf-8"?>
<!-- Generator: Adobe Illustrator 22.1.0, SVG Export Plug-In . SVG Version: 6.00 Build 0)  -->
<svg version="1.1" id="Layer_1" xmlns="http://www.w3.org/2000/svg" xmlns:xlink="http://www.w3.org/1999/xlink" x="0px" y="0px"
	 viewBox="0 0 120.4 31.3" style="enable-background:new 0 0 120.4 31.3;" xml:space="preserve">
<style type="text/css">
	.st0{fill:#FFD200;}
	.st1{fill:#FFFFFF;}
</style>
<g>
	<path class="st0" d="M40,0h6v2.4h-6V0z"/>
	<path class="st0" d="M104.6,5.3c-6.1,0.3-11.2,4.9-12.2,10.9c-0.7,4.8,1.2,9.3,4.5,12h-7.4c0.1-0.2,0.2-0.4,0.2-0.6v-8
		c0-0.4-0.1-0.7-0.4-0.9c-0.2-0.2-0.5-0.3-0.9-0.3h-6.2c-0.4,0-0.7,0.1-0.9,0.3C81.2,19,81,19.3,81,19.6c0,0.3,0.1,0.6,0.4,0.8
		c0.2,0.2,0.5,0.3,0.9,0.3h5v6.4c-1.8,1.2-3.7,1.8-5.8,1.8c-1.8,0-3.5-0.5-5-1.4s-2.8-2.2-3.7-3.8c-0.9-1.6-1.3-3.4-1.3-5.3
		c0-1.9,0.5-3.6,1.4-5.2s2.1-2.9,3.7-3.8c1.5-1,3.2-1.4,5-1.4C82.8,8,84,8.2,85,8.5s1.9,0.9,2.7,1.6c0.2,0.2,0.5,0.3,0.8,0.3
		c0.2,0,0.3,0,0.5-0.1c0.1-0.1,0.2-0.2,0.3-0.4c0.1-0.1,0.3-0.2,0.4-0.3s0.1-0.3,0.1-0.5c0-0.3-0.1-0.6-0.4-0.7
		c-1.2-1-2.4-1.7-3.7-2.1c-1.3-0.4-2.7-0.7-4.2-0.7c-2.3,0-4.4,0.6-6.3,1.7c-1.9,1.2-3.4,2.7-4.5,4.7S69,16.1,69,18.4
		s0.6,4.5,1.7,6.4c1.1,2,2.6,3.5,4.5,4.7c1.9,1.1,4,1.7,6.2,1.7l0,0h19.8l0,0h3.9c7.2,0,13.2-5.6,13.3-12.8
		C118.5,11,112.2,4.9,104.6,5.3z M98.5,21.7c-1.9,0-3.4-1.5-3.4-3.3c0-1.9,1.5-3.3,3.4-3.3s3.4,1.5,3.4,3.3
		C101.8,20.2,100.3,21.7,98.5,21.7z M105.4,28.5c-1.9,0-3.4-1.5-3.4-3.3c0-1.9,1.5-3.3,3.4-3.3s3.4,1.5,3.4,3.3
		C108.7,27,107.2,28.5,105.4,28.5z M103.3,18.3c0-1.1,0.9-2,2.1-2c1.1,0,2.1,0.9,2.1,2s-0.9,2-2.1,2
		C104.2,20.4,103.3,19.4,103.3,18.3z M105.4,14.8c-1.9,0-3.4-1.5-3.4-3.3c0-1.9,1.5-3.3,3.4-3.3s3.4,1.5,3.4,3.3
		C108.7,13.3,107.2,14.8,105.4,14.8z M112.2,21.7c-1.9,0-3.4-1.5-3.4-3.3c0-1.9,1.5-3.3,3.4-3.3s3.4,1.5,3.4,3.3
		S114.1,21.7,112.2,21.7z"/>
	<path class="st1" d="M3.3,31c0.4,0,0.7-0.1,0.9-0.4c0.2-0.2,0.4-0.5,0.4-0.9v-10h10c0.4,0,0.7-0.1,0.9-0.4c0.2-0.2,0.4-0.5,0.4-0.9
		s-0.1-0.7-0.4-0.9c-0.2-0.2-0.5-0.3-0.9-0.3h-10V8.4h13.8c0.4,0,0.7-0.1,0.9-0.3c0.2-0.2,0.4-0.5,0.4-0.8s-0.1-0.6-0.4-0.9
		C19,6.1,18.7,6,18.3,6h-15C2.9,6,2.6,6.1,2.4,6.3C2.1,6.5,2,6.8,2,7.2v22.5c0,0.3,0.1,0.6,0.4,0.9C2.6,30.9,2.9,31,3.3,31L3.3,31z"
		/>
	<path class="st1" d="M23.9,31h13.8c0.4,0,0.7-0.1,0.9-0.3c0.2-0.2,0.4-0.5,0.4-0.8s-0.1-0.6-0.4-0.8c-0.2-0.2-0.5-0.3-0.9-0.3H25.2
		V7.2c0-0.4-0.1-0.7-0.4-0.9C24.6,6.1,24.3,6,23.9,6c-0.3,0-0.6,0.1-0.9,0.4c-0.2,0.2-0.4,0.5-0.4,0.9v22.5c0,0.3,0.1,0.6,0.4,0.9
		C23.3,30.9,23.6,31,23.9,31L23.9,31z"/>
	<path class="st1" d="M43.4,31c0.4,0,0.7-0.1,0.9-0.4c0.2-0.2,0.4-0.5,0.4-0.9V7.2c0-0.4-0.1-0.7-0.4-0.9C44.1,6.1,43.8,6,43.4,6
		c-0.3,0-0.6,0.1-0.9,0.4c-0.2,0.2-0.4,0.5-0.4,0.9v22.5c0,0.3,0.1,0.6,0.4,0.9C42.8,30.9,43.1,31,43.4,31L43.4,31z"/>
	<path class="st1" d="M67.7,29l-7.8-10.8l7.6-10.3c0.1-0.2,0.2-0.5,0.2-0.7c0-0.3-0.1-0.6-0.3-0.8C67.1,6.1,66.9,6,66.5,6
		s-0.7,0.1-1,0.4l-7.4,10.1L50.9,6.4c-0.2-0.3-0.5-0.4-1-0.4c-0.3,0-0.6,0.1-0.8,0.4c-0.2,0.2-0.3,0.5-0.3,0.8
		c0,0.2,0.1,0.5,0.3,0.8l7.4,10.3l-8,10.7c-0.2,0.3-0.3,0.5-0.3,0.9s0.1,0.6,0.3,0.8c0.2,0.2,0.5,0.3,0.9,0.3s0.7-0.1,0.9-0.4
		l7.8-10.7l7.7,10.6c0.2,0.3,0.5,0.4,1,0.4c0.4,0,0.7-0.1,0.9-0.4c0.2-0.2,0.3-0.5,0.3-0.9C68,29.5,67.9,29.2,67.7,29L67.7,29z"/>
</g>
</svg>
